<?xml version="1.0" encoding="UTF-8"?>
<!-- Homer Screenshot 1: Daily Brief — 1080×1920 -->
<svg xmlns="http://www.w3.org/2000/svg" viewBox="0 0 1080 1920" width="1080" height="1920">
  <defs>
    <linearGradient id="hGrad" x1="0%" y1="0%" x2="100%" y2="0%">
      <stop offset="0%" stop-color="#FF0066"/><stop offset="100%" stop-color="#CC00FF"/>
    </linearGradient>
    <linearGradient id="cyanGrad" x1="0%" y1="0%" x2="100%" y2="0%">
      <stop offset="0%" stop-color="#00FFFF"/><stop offset="100%" stop-color="#CC00FF"/>
    </linearGradient>
    <linearGradient id="tempGrad" x1="0%" y1="0%" x2="0%" y2="100%">
      <stop offset="0%" stop-color="#FF0066"/><stop offset="100%" stop-color="#CC00FF"/>
    </linearGradient>
    <linearGradient id="fade" x1="0%" y1="0%" x2="0%" y2="100%">
      <stop offset="0%" stop-color="#0B0018" stop-opacity="0"/>
      <stop offset="100%" stop-color="#0B0018" stop-opacity="1"/>
    </linearGradient>
    <filter id="glow" x="-30%" y="-30%" width="160%" height="160%">
      <feGaussianBlur stdDeviation="8" result="b"/><feMerge><feMergeNode in="b"/><feMergeNode in="SourceGraphic"/></feMerge>
    </filter>
    <filter id="softglow" x="-20%" y="-20%" width="140%" height="140%">
      <feGaussianBlur stdDeviation="4" result="b"/><feMerge><feMergeNode in="b"/><feMergeNode in="SourceGraphic"/></feMerge>
    </filter>
  </defs>

  <!-- BG -->
  <rect width="1080" height="1920" fill="#0B0018"/>

  <!-- STATUS BAR -->
  <text x="60" y="46" font-family="Arial" font-size="30" font-weight="600" fill="#F0F0FF">9:41</text>
  <!-- Signal bars -->
  <rect x="900" y="36" width="9"  height="10" rx="2" fill="#F0F0FF" opacity="0.6"/>
  <rect x="914" y="30" width="9"  height="16" rx="2" fill="#F0F0FF" opacity="0.6"/>
  <rect x="928" y="22" width="9"  height="24" rx="2" fill="#F0F0FF" opacity="0.8"/>
  <rect x="942" y="14" width="9"  height="32" rx="2" fill="#F0F0FF"/>
  <!-- Battery -->
  <rect x="964"  y="18" width="72" height="30" rx="5" fill="none" stroke="#F0F0FF" stroke-width="2.5"/>
  <rect x="1036" y="26" width="7"  height="14" rx="2" fill="#F0F0FF" opacity="0.7"/>
  <rect x="968"  y="22" width="57" height="22" rx="3" fill="#F0F0FF" opacity="0.9"/>

  <!-- PAGE TITLE -->
  <text x="60" y="128" font-family="'Arial Black',Arial,sans-serif" font-size="52" font-weight="900"
    letter-spacing="6" fill="url(#cyanGrad)">DAILY BRIEF</text>
  <text x="60" y="168" font-family="Arial,sans-serif" font-size="28" fill="#888899"
    letter-spacing="2">Thursday, 15 May 2026</text>

  <!-- WEATHER CARD -->
  <rect x="40" y="198" width="1000" height="268" rx="20" fill="#110025"/>
  <rect x="40" y="198" width="1000" height="268" rx="20" fill="none" stroke="#FF0066" stroke-width="1.2" opacity="0.35"/>
  <rect x="40" y="198" width="5"   height="268" rx="2.5" fill="#FF0066"/>
  <!-- Location -->
  <text x="80" y="248" font-family="Arial,sans-serif" font-size="24" letter-spacing="4"
    fill="#00FFFF" opacity="0.9">BUCUREȘTI, ROMANIA</text>
  <!-- Big temperature -->
  <text x="80" y="386" font-family="'Arial Black',Arial,sans-serif" font-size="118"
    font-weight="900" fill="url(#tempGrad)" filter="url(#glow)">22°</text>
  <!-- Condition -->
  <text x="80" y="436" font-family="Arial,sans-serif" font-size="32" fill="#F0F0FF" opacity="0.85">Partly Cloudy</text>
  <!-- Stats row -->
  <text x="80"  y="468" font-family="Arial,sans-serif" font-size="24" fill="#888899">Wind 12 km/h</text>
  <text x="295" y="468" font-family="Arial,sans-serif" font-size="24" fill="#888899">·</text>
  <text x="318" y="468" font-family="Arial,sans-serif" font-size="24" fill="#888899">Humidity 65%</text>
  <text x="556" y="468" font-family="Arial,sans-serif" font-size="24" fill="#888899">·</text>
  <text x="578" y="468" font-family="Arial,sans-serif" font-size="24" fill="#888899">UV Index 4</text>
  <!-- Sun icon -->
  <circle cx="950" cy="298" r="48" fill="#FFD700" opacity="0.82" filter="url(#softglow)"/>
  <line x1="950" y1="228" x2="950" y2="248" stroke="#FFD700" stroke-width="4" opacity="0.6"/>
  <line x1="1000" y1="248" x2="986" y2="262" stroke="#FFD700" stroke-width="4" opacity="0.6"/>
  <line x1="1020" y1="298" x2="1000" y2="298" stroke="#FFD700" stroke-width="4" opacity="0.6"/>
  <line x1="1000" y1="348" x2="986" y2="334" stroke="#FFD700" stroke-width="4" opacity="0.6"/>
  <line x1="950" y1="368" x2="950" y2="348" stroke="#FFD700" stroke-width="4" opacity="0.6"/>
  <line x1="900" y1="348" x2="914" y2="334" stroke="#FFD700" stroke-width="4" opacity="0.6"/>
  <line x1="880" y1="298" x2="900" y2="298" stroke="#FFD700" stroke-width="4" opacity="0.6"/>
  <line x1="900" y1="248" x2="914" y2="262" stroke="#FFD700" stroke-width="4" opacity="0.6"/>

  <!-- QUOTE CARD -->
  <rect x="40" y="484" width="1000" height="148" rx="20" fill="#110025"/>
  <rect x="40" y="484" width="1000" height="148" rx="20" fill="none" stroke="#CC00FF" stroke-width="1.2" opacity="0.30"/>
  <text x="76" y="548" font-family="Georgia,serif" font-size="52" fill="#CC00FF" opacity="0.40">"</text>
  <text x="128" y="548" font-family="Georgia,serif" font-size="30" font-style="italic" fill="#F0F0FF" opacity="0.88">The secret of getting ahead is getting started.</text>
  <text x="128" y="598" font-family="Arial,sans-serif" font-size="25" fill="#CC00FF" letter-spacing="1">— Mark Twain</text>

  <!-- NEWS SECTION -->
  <text x="60" y="670" font-family="Arial,sans-serif" font-size="24" letter-spacing="5"
    fill="#00FFFF" opacity="0.82">NEWS &amp; VIDEOS</text>
  <line x1="60" y1="680" x2="700" y2="680" stroke="#00FFFF" stroke-width="1" opacity="0.20"/>

  <!-- News 1 -->
  <rect x="40" y="694" width="1000" height="118" rx="16" fill="#110025"/>
  <rect x="40" y="694" width="1000" height="118" rx="16" fill="none" stroke="#FF0066" stroke-width="1" opacity="0.22"/>
  <circle cx="80" cy="753" r="8" fill="#FF0066" filter="url(#softglow)"/>
  <text x="112" y="740" font-family="Arial,sans-serif" font-size="30" fill="#F0F0FF">European Markets Rally as Inflation Data Meets Forecasts</text>
  <text x="112" y="788" font-family="Arial,sans-serif" font-size="24" fill="#888899">Bloomberg · 2 hours ago</text>

  <!-- News 2 -->
  <rect x="40" y="828" width="1000" height="118" rx="16" fill="#110025"/>
  <rect x="40" y="828" width="1000" height="118" rx="16" fill="none" stroke="#CC00FF" stroke-width="1" opacity="0.22"/>
  <circle cx="80" cy="887" r="8" fill="#CC00FF" filter="url(#softglow)"/>
  <text x="112" y="874" font-family="Arial,sans-serif" font-size="30" fill="#F0F0FF">Apple Reports Record Revenue Led by Services Division</text>
  <text x="112" y="922" font-family="Arial,sans-serif" font-size="24" fill="#888899">Reuters · 4 hours ago</text>

  <!-- News 3 -->
  <rect x="40" y="962" width="1000" height="118" rx="16" fill="#110025"/>
  <rect x="40" y="962" width="1000" height="118" rx="16" fill="none" stroke="#00FFFF" stroke-width="1" opacity="0.22"/>
  <circle cx="80" cy="1021" r="8" fill="#00FFFF" filter="url(#softglow)"/>
  <text x="112" y="1008" font-family="Arial,sans-serif" font-size="30" fill="#F0F0FF">EV Adoption Accelerates Across Eastern European Markets</text>
  <text x="112" y="1056" font-family="Arial,sans-serif" font-size="24" fill="#888899">TechCrunch · 6 hours ago</text>

  <!-- MARKETS SECTION -->
  <text x="60" y="1126" font-family="Arial,sans-serif" font-size="24" letter-spacing="5"
    fill="#00FFFF" opacity="0.82">MARKETS</text>
  <line x1="60" y1="1136" x2="400" y2="1136" stroke="#00FFFF" stroke-width="1" opacity="0.20"/>

  <!-- Market card 1: S&P 500 -->
  <rect x="40" y="1150" width="320" height="168" rx="16" fill="#110025"/>
  <rect x="40" y="1150" width="320" height="168" rx="16" fill="none" stroke="#FF0066" stroke-width="1" opacity="0.28"/>
  <text x="200" y="1198" text-anchor="middle" font-family="Arial,sans-serif" font-size="23" letter-spacing="2" fill="#888899">S&amp;P 500</text>
  <text x="200" y="1262" text-anchor="middle" font-family="'Arial Black',Arial,sans-serif" font-size="44" font-weight="900" fill="#F0F0FF">5,234</text>
  <rect x="120" y="1278" width="160" height="30" rx="15" fill="#00CC6622"/>
  <text x="200" y="1299" text-anchor="middle" font-family="Arial,sans-serif" font-size="24" font-weight="700" fill="#00CC66">▲ +0.82%</text>

  <!-- Market card 2: BTC -->
  <rect x="380" y="1150" width="320" height="168" rx="16" fill="#110025"/>
  <rect x="380" y="1150" width="320" height="168" rx="16" fill="none" stroke="#FFD700" stroke-width="1" opacity="0.28"/>
  <text x="540" y="1198" text-anchor="middle" font-family="Arial,sans-serif" font-size="23" letter-spacing="2" fill="#888899">BITCOIN</text>
  <text x="540" y="1262" text-anchor="middle" font-family="'Arial Black',Arial,sans-serif" font-size="44" font-weight="900" fill="#F0F0FF">$68,420</text>
  <rect x="460" y="1278" width="160" height="30" rx="15" fill="#00CC6622"/>
  <text x="540" y="1299" text-anchor="middle" font-family="Arial,sans-serif" font-size="24" font-weight="700" fill="#00CC66">▲ +2.14%</text>

  <!-- Market card 3: EUR/USD -->
  <rect x="720" y="1150" width="320" height="168" rx="16" fill="#110025"/>
  <rect x="720" y="1150" width="320" height="168" rx="16" fill="none" stroke="#00FFFF" stroke-width="1" opacity="0.28"/>
  <text x="880" y="1198" text-anchor="middle" font-family="Arial,sans-serif" font-size="23" letter-spacing="2" fill="#888899">EUR / USD</text>
  <text x="880" y="1262" text-anchor="middle" font-family="'Arial Black',Arial,sans-serif" font-size="44" font-weight="900" fill="#F0F0FF">1.0847</text>
  <rect x="800" y="1278" width="160" height="30" rx="15" fill="#FF224422"/>
  <text x="880" y="1299" text-anchor="middle" font-family="Arial,sans-serif" font-size="24" font-weight="700" fill="#FF4444">▼ -0.12%</text>

  <!-- Fade at bottom of content -->
  <rect x="0" y="1700" width="1080" height="120" fill="url(#fade)"/>

  <!-- BOTTOM NAV -->
  <rect x="0" y="1820" width="1080" height="100" fill="#0D001E"/>
  <line x1="0" y1="1820" x2="1080" y2="1820" stroke="#2A0050" stroke-width="1.5"/>
  <!-- Home (selected) -->
  <g transform="translate(108,1860)">
    <path d="M0,-22 L24,0 L16,0 L16,22 L6,22 L6,10 L-6,10 L-6,22 L-16,22 L-16,0 L-24,0 Z" fill="#FF0066" filter="url(#softglow)"/>
    <text y="46" text-anchor="middle" font-family="Arial,sans-serif" font-size="20" letter-spacing="1" fill="#FF0066">HOME</text>
  </g>
  <!-- Focus -->
  <g transform="translate(324,1860)">
    <circle r="22" fill="none" stroke="#444466" stroke-width="2.5"/>
    <line x1="0" y1="-13" x2="0" y2="0" stroke="#444466" stroke-width="2.5"/>
    <line x1="0" y1="0" x2="10" y2="-8" stroke="#444466" stroke-width="2.5"/>
    <text y="46" text-anchor="middle" font-family="Arial,sans-serif" font-size="20" letter-spacing="1" fill="#444466">FOCUS</text>
  </g>
  <!-- Vault -->
  <g transform="translate(540,1860)">
    <rect x="-16" y="-4" width="32" height="26" rx="4" fill="none" stroke="#444466" stroke-width="2.5"/>
    <path d="M-10,-4 L-10,-18 A10,10 0 0,1 10,-18 L10,-4" fill="none" stroke="#444466" stroke-width="2.5"/>
    <circle r="5" cy="9" fill="#444466"/>
    <text y="46" text-anchor="middle" font-family="Arial,sans-serif" font-size="20" letter-spacing="1" fill="#444466">VAULT</text>
  </g>
  <!-- Joey -->
  <g transform="translate(756,1860)">
    <path d="M-18,-20 L18,-20 L18,8 L8,8 L0,22 L0,8 L-18,8 Z" fill="none" stroke="#444466" stroke-width="2.5" stroke-linejoin="round"/>
    <circle cx="-8" cy="-6" r="3" fill="#444466"/>
    <circle cx="0"  cy="-6" r="3" fill="#444466"/>
    <circle cx="8"  cy="-6" r="3" fill="#444466"/>
    <text y="46" text-anchor="middle" font-family="Arial,sans-serif" font-size="20" letter-spacing="1" fill="#444466">JOEY</text>
  </g>
  <!-- More -->
  <g transform="translate(972,1860)">
    <circle cx="-20" r="6" fill="#444466"/>
    <circle r="6" fill="#444466"/>
    <circle cx="20" r="6" fill="#444466"/>
    <text y="46" text-anchor="middle" font-family="Arial,sans-serif" font-size="20" letter-spacing="1" fill="#444466">MORE</text>
  </g>
</svg>
